<?xml version="1.0" encoding="UTF-8" standalone="no"?>
<!-- Created with Inkscape (http://www.inkscape.org/) -->

<svg
   xmlns:dc="http://purl.org/dc/elements/1.1/"
   xmlns:cc="http://creativecommons.org/ns#"
   xmlns:rdf="http://www.w3.org/1999/02/22-rdf-syntax-ns#"
   xmlns:svg="http://www.w3.org/2000/svg"
   xmlns="http://www.w3.org/2000/svg"
   xmlns:xlink="http://www.w3.org/1999/xlink"
   xmlns:sodipodi="http://sodipodi.sourceforge.net/DTD/sodipodi-0.dtd"
   xmlns:inkscape="http://www.inkscape.org/namespaces/inkscape"
   width="97.27813mm"
   height="10.672901mm"
   viewBox="0 0 97.27813 10.672901"
   version="1.1"
   id="svg8"
   inkscape:version="0.92.1 r15371"
   sodipodi:docname="multitrack.svg">
  <defs
     id="defs2">
    <linearGradient
       inkscape:collect="always"
       id="linearGradient3961">
      <stop
         style="stop-color:#782121;stop-opacity:1;"
         offset="0"
         id="stop3957" />
      <stop
         style="stop-color:#782121;stop-opacity:0;"
         offset="1"
         id="stop3959" />
    </linearGradient>
    <linearGradient
       inkscape:collect="always"
       xlink:href="#linearGradient3961"
       id="linearGradient3963"
       x1="-44.714191"
       y1="92.979805"
       x2="-45.369003"
       y2="114.68209"
       gradientUnits="userSpaceOnUse" />
    <linearGradient
       inkscape:collect="always"
       xlink:href="#linearGradient3961"
       id="linearGradient3965"
       x1="-44.714191"
       y1="92.979805"
       x2="-45.369003"
       y2="114.68209"
       gradientUnits="userSpaceOnUse" />
    <linearGradient
       inkscape:collect="always"
       xlink:href="#linearGradient3961"
       id="linearGradient3967"
       x1="-44.714191"
       y1="92.979805"
       x2="-45.369003"
       y2="114.68209"
       gradientUnits="userSpaceOnUse" />
    <linearGradient
       inkscape:collect="always"
       xlink:href="#linearGradient3961"
       id="linearGradient3969"
       x1="-44.714191"
       y1="92.979805"
       x2="-45.369003"
       y2="114.68209"
       gradientUnits="userSpaceOnUse" />
    <linearGradient
       inkscape:collect="always"
       xlink:href="#linearGradient3961"
       id="linearGradient3971"
       x1="-44.714191"
       y1="92.979805"
       x2="-45.369003"
       y2="114.68209"
       gradientUnits="userSpaceOnUse" />
  </defs>
  <sodipodi:namedview
     id="base"
     pagecolor="#ffffff"
     bordercolor="#666666"
     borderopacity="1.0"
     inkscape:pageopacity="0.0"
     inkscape:pageshadow="2"
     inkscape:zoom="2"
     inkscape:cx="144.3987"
     inkscape:cy="53.675973"
     inkscape:document-units="px"
     inkscape:current-layer="text3858"
     showgrid="false"
     showborder="false"
     inkscape:object-nodes="false"
     inkscape:window-width="1920"
     inkscape:window-height="1017"
     inkscape:window-x="1272"
     inkscape:window-y="-8"
     inkscape:window-maximized="1"
     fit-margin-top="0"
     fit-margin-left="0"
     fit-margin-right="0"
     fit-margin-bottom="0" />
  <metadata
     id="metadata5">
    <rdf:RDF>
      <cc:Work
         rdf:about="">
        <dc:format>image/svg+xml</dc:format>
        <dc:type
           rdf:resource="http://purl.org/dc/dcmitype/StillImage" />
        <dc:title></dc:title>
      </cc:Work>
    </rdf:RDF>
  </metadata>
  <g
     inkscape:label="Layer 1"
     inkscape:groupmode="layer"
     id="layer1"
     transform="translate(67.701639,-94.439409)">
    <flowRoot
       xml:space="preserve"
       id="flowRoot3848"
       style="font-style:normal;font-weight:normal;font-size:40px;line-height:1.25;font-family:sans-serif;letter-spacing:0px;word-spacing:0px;fill:#000000;fill-opacity:1;stroke:none"
       transform="scale(0.26458333)"><flowRegion
         id="flowRegion3850"><rect
           id="rect3852"
           width="556"
           height="188"
           x="-469"
           y="323.51968" /></flowRegion><flowPara
         id="flowPara3854"></flowPara></flowRoot>    <g
       aria-label="MULTITRACK"
       style="font-style:italic;font-variant:normal;font-weight:bold;font-stretch:normal;font-size:14.11111069px;line-height:1.25;font-family:sans-serif;-inkscape-font-specification:'sans-serif, Bold Italic';font-variant-ligatures:normal;font-variant-caps:normal;font-variant-numeric:normal;font-feature-settings:normal;text-align:start;letter-spacing:0px;word-spacing:0px;writing-mode:lr-tb;text-anchor:start;fill:#000000;fill-opacity:1;stroke:none;stroke-width:0.26458332"
       id="text3858">
      <path
         d="m -65.696593,94.625444 h 3.25906 l 1.322916,5.463916 3.472657,-5.463916 h 3.389973 l -2.005045,10.287056 h -2.51492 l 1.467611,-7.592992 -3.569119,5.615502 h -1.426269 l -1.41938,-5.615502 -1.46761,7.592992 h -2.51492 z"
         style="font-style:italic;font-variant:normal;font-weight:bold;font-stretch:normal;font-size:14.11111069px;font-family:sans-serif;-inkscape-font-specification:'sans-serif, Bold Italic';font-variant-ligatures:normal;font-variant-caps:normal;font-variant-numeric:normal;font-feature-settings:normal;text-align:start;writing-mode:lr-tb;text-anchor:start;fill:url(#linearGradient3971);fill-opacity:1;stroke-width:0.26458332"
         id="path3860"
         inkscape:connector-curvature="0" />
      <path
         d="m -52.698938,94.625444 h 2.652723 l -1.198893,6.159826 q -0.0689,0.33073 -0.103353,0.58567 -0.02756,0.25494 -0.02756,0.44786 0,0.67524 0.35829,1.01286 0.36518,0.33073 1.08176,0.33073 0.964627,0 1.481391,-0.53743 0.516765,-0.54433 0.764811,-1.8328 l 1.198894,-6.166716 h 2.652723 l -1.198893,6.166716 q -0.447862,2.27377 -1.701877,3.30041 -1.247125,1.01974 -3.576009,1.01974 -1.825901,0 -2.776747,-0.77859 -0.950846,-0.78548 -0.950846,-2.27376 0,-0.24805 0.03445,-0.55122 0.03445,-0.31005 0.110243,-0.71658 z"
         style="font-style:italic;font-variant:normal;font-weight:bold;font-stretch:normal;font-size:14.11111069px;font-family:sans-serif;-inkscape-font-specification:'sans-serif, Bold Italic';font-variant-ligatures:normal;font-variant-caps:normal;font-variant-numeric:normal;font-feature-settings:normal;text-align:start;writing-mode:lr-tb;text-anchor:start;fill:url(#linearGradient3969);fill-opacity:1;stroke-width:0.26458332"
         id="path3862"
         inkscape:connector-curvature="0" />
      <path
         d="m -42.291995,94.625444 h 2.652724 l -1.612305,8.282006 h 4.643989 l -0.378961,2.00505 h -7.310492 z"
         style="font-style:italic;font-variant:normal;font-weight:bold;font-stretch:normal;font-size:14.11111069px;font-family:sans-serif;-inkscape-font-specification:'sans-serif, Bold Italic';font-variant-ligatures:normal;font-variant-caps:normal;font-variant-numeric:normal;font-feature-settings:normal;text-align:start;writing-mode:lr-tb;text-anchor:start;fill:url(#linearGradient3967);fill-opacity:1;stroke-width:0.26458332"
         id="path3864"
         inkscape:connector-curvature="0" />
      <path
         d="m -36.876305,94.625444 h 9.480902 l -0.392741,2.005045 h -3.417534 l -1.612305,8.282011 h -2.652723 l 1.612304,-8.282011 h -3.417534 z"
         style="font-style:italic;font-variant:normal;font-weight:bold;font-stretch:normal;font-size:14.11111069px;font-family:sans-serif;-inkscape-font-specification:'sans-serif, Bold Italic';font-variant-ligatures:normal;font-variant-caps:normal;font-variant-numeric:normal;font-feature-settings:normal;text-align:start;writing-mode:lr-tb;text-anchor:start;fill:url(#linearGradient3965);fill-opacity:1;stroke-width:0.26458332"
         id="path3866"
         inkscape:connector-curvature="0" />
      <path
         d="m -26.031146,94.625444 h 2.652724 l -2.005046,10.287056 h -2.652723 z"
         style="font-style:italic;font-variant:normal;font-weight:bold;font-stretch:normal;font-size:14.11111069px;font-family:sans-serif;-inkscape-font-specification:'sans-serif, Bold Italic';font-variant-ligatures:normal;font-variant-caps:normal;font-variant-numeric:normal;font-feature-settings:normal;text-align:start;writing-mode:lr-tb;text-anchor:start;fill:url(#linearGradient3963);fill-opacity:1;stroke-width:0.26458332"
         id="path3868"
         inkscape:connector-curvature="0" />
      <path
         d="m -21.993493,94.625444 h 9.480903 l -0.392741,2.005045 h -3.417535 l -1.612304,8.282011 h -2.652724 l 1.612305,-8.282011 h -3.417535 z"
         style="font-style:italic;font-variant:normal;font-weight:bold;font-stretch:normal;font-size:14.11111069px;font-family:sans-serif;-inkscape-font-specification:'sans-serif, Bold Italic';font-variant-ligatures:normal;font-variant-caps:normal;font-variant-numeric:normal;font-feature-settings:normal;text-align:start;writing-mode:lr-tb;text-anchor:start;fill:#333333;stroke-width:0.26458332"
         id="path3870"
         inkscape:connector-curvature="0" />
      <path
         d="m -8.2682321,99.18675 q 0.902615,0 1.3642578,-0.420302 0.468533,-0.420301 0.468533,-1.233344 0,-0.509874 -0.323839,-0.74414 -0.3169488,-0.241157 -1.0059679,-0.241157 H -8.8607885 L -9.384443,99.18675 Z m -1.4676102,1.83279 -0.7648117,3.89296 h -2.652725 l 2.005047,-10.287056 h 3.9205187 q 1.694987,0 2.5700412,0.633897 0.8750542,0.633898 0.8750542,1.867242 0,1.247124 -0.6890191,2.053277 -0.689019,0.806152 -1.8672417,0.92329 0.5374349,0.11024 0.8957248,0.55121 0.35829,0.43408 0.6270074,1.3367 l 0.8750542,2.92144 h -2.638943 l -0.7717014,-2.55626 q -0.2342665,-0.76481 -0.5718858,-1.04731 -0.3307292,-0.28939 -0.9646268,-0.28939 z"
         style="font-style:italic;font-variant:normal;font-weight:bold;font-stretch:normal;font-size:14.11111069px;font-family:sans-serif;-inkscape-font-specification:'sans-serif, Bold Italic';font-variant-ligatures:normal;font-variant-caps:normal;font-variant-numeric:normal;font-feature-settings:normal;text-align:start;writing-mode:lr-tb;text-anchor:start;fill:#333333;stroke-width:0.26458332"
         id="path3872"
         inkscape:connector-curvature="0" />
      <path
         d="M 4.3408203,103.03837 H 0.23426666 l -1.01974814,1.87413 H -3.507107 L 2.308214,94.625444 H 5.339898 L 7.1589083,104.9125 H 4.6370985 Z m -3.107476,-1.86725 H 3.9963108 L 3.3761936,97.209265 Z"
         style="font-style:italic;font-variant:normal;font-weight:bold;font-stretch:normal;font-size:14.11111069px;font-family:sans-serif;-inkscape-font-specification:'sans-serif, Bold Italic';font-variant-ligatures:normal;font-variant-caps:normal;font-variant-numeric:normal;font-feature-settings:normal;text-align:start;writing-mode:lr-tb;text-anchor:start;fill:#333333;stroke-width:0.26458332"
         id="path3874"
         inkscape:connector-curvature="0" />
      <path
         d="m 15.374771,104.43019 q -0.950846,0.33761 -1.8259,0.50987 -0.875055,0.17225 -1.660536,0.17225 -2.0739477,0 -3.3141811,-1.13688 -1.2402341,-1.13688 -1.2402341,-3.01101 0,-1.233345 0.3927407,-2.321995 0.3927407,-1.09554 1.1575514,-1.998155 0.9026144,-1.06109 2.1704091,-1.632976 1.274686,-0.571885 2.742296,-0.571885 0.799263,0 1.605415,0.192925 0.806152,0.186035 1.639865,0.571886 l -0.427192,2.129069 q -0.661458,-0.502984 -1.329806,-0.737251 -0.668349,-0.234266 -1.43316,-0.234266 -1.591634,0 -2.666504,1.226454 -1.07487,1.226454 -1.07487,3.066134 0,1.18511 0.661459,1.86035 0.661458,0.67524 1.8259,0.67524 0.695909,0 1.474501,-0.24805 0.785482,-0.25493 1.756999,-0.79237 z"
         style="font-style:italic;font-variant:normal;font-weight:bold;font-stretch:normal;font-size:14.11111069px;font-family:sans-serif;-inkscape-font-specification:'sans-serif, Bold Italic';font-variant-ligatures:normal;font-variant-caps:normal;font-variant-numeric:normal;font-feature-settings:normal;text-align:start;writing-mode:lr-tb;text-anchor:start;fill:#333333;stroke-width:0.26458332"
         id="path3876"
         inkscape:connector-curvature="0" />
      <path
         d="m 18.42988,94.625444 h 2.652724 l -0.72347,3.700032 4.375271,-3.700032 h 3.203939 l -5.898004,4.995388 4.444173,5.291668 h -3.114366 l -3.458876,-4.29259 -0.833713,4.29259 h -2.652723 z"
         style="font-style:italic;font-variant:normal;font-weight:bold;font-stretch:normal;font-size:14.11111069px;font-family:sans-serif;-inkscape-font-specification:'sans-serif, Bold Italic';font-variant-ligatures:normal;font-variant-caps:normal;font-variant-numeric:normal;font-feature-settings:normal;text-align:start;writing-mode:lr-tb;text-anchor:start;fill:#333333;stroke-width:0.26458332"
         id="path3878"
         inkscape:connector-curvature="0" />
      <rect
         style="opacity:0.89600004;fill:#ffffff;fill-opacity:1;stroke:none;stroke-width:0.22629523;stroke-linecap:round;stroke-linejoin:round;stroke-miterlimit:4;stroke-dasharray:none;stroke-opacity:1"
         id="rect3893"
         width="52.334885"
         height="0.93544334"
         x="-22.758392"
         y="97.902802" />
    </g>
  </g>
</svg>
